<svg width="38" height="24" viewBox="0 0 348 241" fill="none" xmlns="http://www.w3.org/2000/svg">
    <path d="M92.097 0C82.3186 0 51.7611 19.1032 48.0942 22.5765L53.9002 37.6274L89.8385 56.6024C94.6259 49.8488 102.181 30.6808 104.32 19.682C106.036 10.8578 101.875 0 92.097 0Z" fill="url(#paint0_linear)"/>
    <path d="M348 117.488C348 100.147 336.232 94.366 327.593 96.1914C291.957 108.665 226.47 101.059 197.839 92.8448C169.208 84.6302 105.549 56.3356 93.9751 52.0762C61.0799 40.5149 49.6163 26.824 48.0941 22.5646C21.5945 95.8872 -35.7782 188.627 31.5358 220.018C132.658 267.176 268.808 221.235 296.83 201.155C324.852 181.075 348 134.83 348 117.488Z" fill="white"/>
    <mask id="mask0" style="mask-type:alpha" maskUnits="userSpaceOnUse" x="0" y="22" width="348" height="219">
        <path d="M347.788 117.54C347.788 100.191 336.028 94.4075 327.395 96.2338C291.785 108.713 226.344 101.104 197.733 92.8857C169.123 84.6677 105.509 56.3614 93.9434 52.1002C61.0715 40.5342 49.6161 26.8376 48.095 22.5764C21.6142 95.9294 -35.7178 188.708 31.5485 220.112C132.599 267.289 268.652 221.329 296.654 201.241C324.656 181.153 347.788 134.889 347.788 117.54Z" fill="#F0F0F0"/>
    </mask>
    <g mask="url(#mask0)">
        <path d="M35.312 268.314L143.362 8.27087L244.49 47.3978L162.324 278.547L35.312 268.314Z" fill="url(#paint1_linear)"/>
        <ellipse cx="93.1956" cy="124.465" rx="96.3234" ry="168.484" transform="rotate(23.6845 93.1956 124.465)" fill="url(#paint2_linear)"/>
        <path d="M134.914 179.053C236.248 191.221 345.017 107.229 359.218 99.0311L323.859 208.856L142.868 255.264L25.3008 227.419L-69.8155 121.988C-35.3505 136.954 53.8464 169.319 134.914 179.053Z" fill="url(#paint3_linear)"/>
    </g>
    <path fill-rule="evenodd" clip-rule="evenodd" d="M92.3087 104.164C75.7857 96.6131 60.2221 102.997 50.0267 110.081C39.7396 117.228 31.9477 126.953 28.6219 132.655L41.3461 140.076C43.7021 136.037 50.0816 127.979 58.4312 122.178C66.8003 116.363 76.622 113.151 86.2649 117.598L86.3913 117.656L86.5199 117.709C89.8791 119.107 92.5485 121.687 94.8952 125.044C96.6715 127.585 97.9385 130.033 99.2391 132.548C99.7645 133.563 100.295 134.589 100.868 135.636C101.2 136.245 101.592 137.006 102.035 137.866C103.329 140.381 105.065 143.751 107.062 146.698C109.931 150.932 113.981 155.411 120.047 158.216C129.737 162.695 140.12 161.069 148.009 157.164C155.994 153.211 162.567 146.662 167.137 140.266L155.152 131.703C151.556 136.735 146.706 141.373 141.475 143.962C136.434 146.458 130.839 146.977 126.229 144.845C123.43 143.552 121.241 141.365 119.256 138.435C117.785 136.265 116.732 134.215 115.578 131.969C115.025 130.894 114.45 129.773 113.794 128.573C113.487 128.012 113.125 127.311 112.711 126.51C111.325 123.829 109.361 120.027 106.968 116.604C103.733 111.976 99.1108 107.032 92.3087 104.164Z" fill="url(#paint4_linear)"/>
    <defs>
        <linearGradient id="paint0_linear" x1="76.3954" y1="0" x2="76.3954" y2="56.6024" gradientUnits="userSpaceOnUse">
            <stop stop-color="#969696"/>
            <stop offset="1" stop-color="#303030" stop-opacity="0.88"/>
        </linearGradient>
        <linearGradient id="paint1_linear" x1="54.2735" y1="69.971" x2="193.023" y2="257.78" gradientUnits="userSpaceOnUse">
            <stop stop-color="white"/>
            <stop offset="1" stop-color="#7B6F6F" stop-opacity="0"/>
        </linearGradient>
        <linearGradient id="paint2_linear" x1="194.499" y1="137.551" x2="7.11334" y2="147.733" gradientUnits="userSpaceOnUse">
            <stop stop-color="#7C7C7C" stop-opacity="0.59"/>
            <stop offset="1" stop-color="#E0E0E0" stop-opacity="0"/>
            <stop offset="1" stop-color="#EFEFEF" stop-opacity="0"/>
        </linearGradient>
        <linearGradient id="paint3_linear" x1="248.882" y1="313.953" x2="157.705" y2="95.5482" gradientUnits="userSpaceOnUse">
            <stop stop-color="#4E4E4E"/>
            <stop offset="1" stop-color="#ACACAC" stop-opacity="0"/>
        </linearGradient>
        <linearGradient id="paint4_linear" x1="76.6171" y1="154.099" x2="109.448" y2="93.6603" gradientUnits="userSpaceOnUse">
            <stop stop-color="#686868"/>
            <stop offset="1" stop-color="#707070" stop-opacity="0"/>
        </linearGradient>
    </defs>
</svg>
